<?xml version="1.0" standalone="no"?>
<!DOCTYPE svg PUBLIC "-//W3C//DTD SVG 20010904//EN"
 "http://www.w3.org/TR/2001/REC-SVG-20010904/DTD/svg10.dtd">
<svg version="1.0" xmlns="http://www.w3.org/2000/svg"
 width="720.000000pt" height="720.000000pt" viewBox="0 0 720.000000 720.000000"
 preserveAspectRatio="xMidYMid meet">
<metadata>
Created by potrace 1.14, written by Peter Selinger 2001-2017
</metadata>
<g transform="translate(0.000000,720.000000) scale(0.100000,-0.100000)"
fill="#000000" stroke="none">
<path d="M2980 4901 c-14 -11 -42 -34 -64 -50 -21 -17 -36 -31 -33 -31 3 0
-15 -20 -41 -45 -35 -34 -51 -44 -67 -39 -11 4 -17 3 -13 -1 8 -9 -16 -35 -32
-35 -8 0 -10 -61 -8 -209 3 -182 1 -208 -12 -203 -8 3 -23 14 -32 25 -9 10
-23 17 -30 15 -16 -6 -64 44 -74 75 -4 12 -15 28 -25 35 -11 7 -19 24 -19 38
l0 24 -1266 0 -1267 0 6 -49 c3 -27 12 -60 19 -72 25 -44 130 -140 159 -146
16 -3 29 -9 29 -14 0 -5 7 -9 15 -9 8 0 15 -4 15 -10 0 -5 16 -10 36 -10 22 0
33 -4 29 -11 -5 -7 15 -10 61 -9 146 3 138 6 153 -46 9 -29 30 -64 56 -90 23
-24 39 -46 37 -49 -3 -3 4 -5 16 -5 12 0 22 -4 22 -10 0 -5 19 -15 42 -21 24
-7 47 -16 52 -21 6 -4 25 -8 43 -8 18 0 33 -4 33 -10 0 -6 46 -10 118 -10
l119 0 51 -54 c28 -29 48 -56 45 -60 -4 -3 6 -6 21 -6 34 0 69 -18 60 -31 -4
-7 3 -9 17 -7 13 2 23 -2 22 -8 -1 -7 37 -10 113 -10 92 0 114 2 114 14 0 9 6
12 16 8 8 -3 22 1 30 9 19 19 34 19 34 1 0 -42 108 -113 206 -135 57 -13 294
-13 294 0 0 21 26 5 68 -41 24 -27 49 -47 53 -44 5 3 12 -2 15 -10 3 -9 15
-16 25 -16 10 0 19 -4 19 -9 0 -5 8 -8 18 -6 9 1 26 -3 37 -10 32 -20 180 -16
249 6 33 10 72 19 88 19 15 0 28 5 28 10 0 6 9 10 20 10 20 0 20 -7 20 -465 0
-256 4 -465 8 -465 5 0 47 -38 94 -85 48 -47 91 -85 96 -85 5 0 13 -11 16 -25
4 -14 11 -25 16 -25 5 0 29 -18 53 -40 l44 -41 553 0 553 0 44 41 c24 22 48
40 53 40 6 0 10 4 10 9 0 4 48 57 107 117 l107 109 -1 461 c-1 447 0 461 18
457 11 -3 19 -9 19 -13 0 -4 19 -10 43 -13 71 -9 97 -15 110 -25 15 -11 210
-12 217 -1 3 5 15 10 25 12 11 2 30 8 41 15 12 6 24 8 28 5 3 -3 6 -1 6 5 0 7
6 12 13 12 7 0 24 13 37 30 14 16 30 29 37 30 6 0 15 10 18 21 4 12 10 17 14
12 3 -6 66 -9 151 -8 147 1 230 11 230 26 0 5 7 9 15 9 8 0 25 6 37 13 29 16
88 74 82 80 -2 2 2 10 11 17 12 10 15 9 15 -5 0 -14 6 -16 30 -12 21 5 30 3
30 -6 0 -10 29 -13 115 -13 78 -1 113 2 112 10 -1 6 8 10 22 8 14 -2 21 0 17
7 -9 13 26 31 60 31 15 0 24 3 21 7 -4 3 11 24 33 45 22 22 40 43 40 48 0 15
33 20 146 20 69 0 114 4 114 10 0 6 16 10 35 10 19 0 35 4 35 9 0 5 18 11 40
15 22 3 50 17 64 31 14 14 29 25 33 25 14 1 63 49 63 62 0 7 9 24 20 38 11 14
20 36 20 50 l0 25 105 -3 c85 -3 105 -1 105 11 0 10 9 12 31 9 22 -3 30 -1 25
7 -5 7 0 11 13 11 11 0 23 5 26 10 3 6 14 10 24 10 23 0 151 123 151 145 0 9
4 14 9 11 8 -6 21 48 21 91 l0 23 -1265 0 c-1260 0 -1265 0 -1265 -20 0 -11
-4 -20 -10 -20 -5 0 -10 -7 -10 -15 0 -8 -4 -15 -10 -15 -5 0 -10 -7 -10 -15
0 -8 -4 -15 -10 -15 -5 0 -10 -7 -10 -15 0 -24 -30 -50 -84 -74 -27 -11 -50
-21 -53 -21 -2 0 -3 89 -2 198 l1 198 -36 37 c-20 21 -41 35 -46 32 -5 -3 -40
26 -77 65 -37 38 -72 70 -79 70 -6 0 -17 7 -24 15 -11 13 -91 15 -609 15 -576
0 -598 -1 -621 -19z m912 -548 c2 -9 2 -360 0 -780 l-2 -763 -290 0 -290 0 0
780 0 780 289 0 c263 0 290 -2 293 -17z"/>
</g>
</svg>
